:SAMPLES-PER-SECOND 30
:FULLY-SPECIFIED
:DEGREES
86
root  34.83934778 36.57961868 -14.35520743 10.23079014 -4.076918125 3.143917799
lowerback  -9.216549873 0.2803010643 -0.5930323005
upperback  -3.609920025 0.9446960092 -3.8004601
thorax  1.478399992 0.6423509717 -3.500780106
lowerneck  -12.1413002 -7.624440193 -5.131929874
upperneck  11.97910023 -10.37970066 7.508490086
head  6.296480179 -4.627709866 2.245150089
lclavicle  0 -4.497500157e-015 -2.743230041e-014
lhumerus  -47.80860138 31.40279961 62.3064003
lradius  -0.02380322665 -6.507048965e-006 29.21689987
lwrist  3.192251654e-007 -3.790274832e-007 -29.59860039
lhand  -4.416312412e-031 -36.91149902 -10.67179966
lfingers  90 7.125020027 -90
lthumb  94.82076045 -25.50724672 101.0810285
rclavicle  0 -4.497500157e-015 -2.743230041e-014
rhumerus  11.66040039 -19.16029739 -47.62879944
rradius  -5.16745672e-007 2.214343908e-008 89.92379761
rwrist  0.0006954420824 -0.004670973402 -177.1000061
rhand  -1.768881129e-031 3.510220051 -7.016839981
rfingers  -90 -7.125020027 -90
rthumb  -85.01756694 -8.923608911 -60.66297225
rfemur  -12.24700069 15.46519375 12.73466301
rtibia  -0.1953088939 -0.8932266831 18.80430603
rfoot  0.9442923069 -21.51131058 -36.12545776
rtoes  4.136178688 19.58478492 -102.1742777
lfemur  -6.93130827 -15.91751671 -20.69999504
ltibia  4.507350445 0.2495289743 11.16203594
lfoot  0.4681018591 -23.87288094 35.86837387
ltoes  -8.575402162 -18.13667037 -115.8470924
87
root  34.83937181 36.57889479 -14.35219171 10.23749065 -4.010706425 3.14262104
lowerback  -9.139019966 0.2890540361 -0.576944232
upperback  -3.647269964 0.955918014 -3.824929953
thorax  1.39823997 0.6487510204 -3.535109997
lowerneck  -12.12139988 -7.672870159 -5.135640144
upperneck  11.96080017 -10.44419861 7.504459858
head  6.29144001 -4.660160065 2.238440037
lclavicle  0 -4.497500157e-015 -2.743230041e-014
lhumerus  -47.86750031 31.44009972 62.21949768
lradius  -0.02558652684 -6.507048965e-006 29.17379951
lwrist  3.192251654e-007 -3.790274832e-007 -29.6692009
lhand  -0 -36.94120026 -10.68400002
lfingers  90 7.125020027 -90
lthumb  94.83727609 -25.51818166 101.1138888
rclavicle  0 -4.497500157e-015 -2.743230041e-014
rhumerus  13.14860153 -19.24560165 -47.40660095
rradius  -5.16745672e-007 2.214343908e-008 88.96959686
rwrist  0.0006954420824 -0.004670973402 -177.0359955
rhand  -1.768659868e-031 3.391360044 -6.624070168
rfingers  -90 -7.125020027 -90
rthumb  -84.85067893 -9.259194994 -60.74823972
rfemur  -12.23401546 15.48045254 12.74603081
rtibia  -0.1958582997 -0.8602924943 18.79920578
rfoot  0.9429166317 -21.45221901 -36.1689949
rtoes  4.128229506 19.58639901 -102.150564
lfemur  -6.959828377 -15.89245033 -20.67721367
ltibia  4.495429039 0.2767704129 11.17851448
lfoot  0.4581773281 -23.93273544 35.79689789
ltoes  -8.582268134 -18.13350793 -115.8691512
88
root  34.83792102 36.57845925 -14.34919252 10.24945927 -3.941516638 3.143597603
lowerback  -9.070819855 0.3050929904 -0.5266033411
upperback  -3.713700056 0.9775490165 -3.866440058
thorax  1.294399977 0.6613550186 -3.6057899
lowerneck  -11.98530006 -7.715240002 -5.210380077
upperneck  11.94219971 -10.50090027 7.578649998
head  6.274400234 -4.687709808 2.272340059
lclavicle  0 -4.497500157e-015 -2.743230041e-014
lhumerus  -47.99039841 31.38199997 62.11899948
lradius  -0.02739511803 -6.507048965e-006 29.15040016
lwrist  3.192251654e-007 -3.790274832e-007 -29.68470001
lhand  -4.418033285e-031 -36.94120026 -10.73639965
lfingers  90 7.125020027 -90
lthumb  94.84847347 -25.5695991 101.1187171
rclavicle  0 -4.497500157e-015 -2.743230041e-014
rhumerus  14.52750206 -19.29940033 -47.15370178
rradius  -5.16745672e-007 2.214343908e-008 88.01699829
rwrist  0.0006954420824 -0.004670973402 -176.9810028
rhand  -1.769182574e-031 3.665920019 -6.891389847
rfingers  -90 -7.125020027 -90
rthumb  -84.91906225 -9.042098014 -60.50128079
rfemur  -12.23504543 15.47602081 12.76836109
rtibia  -0.19729653 -0.8412011266 18.80525398
rfoot  0.9307456017 -21.42328453 -36.22313309
rtoes  4.161546952 19.57961205 -102.2499679
lfemur  -6.958055496 -15.85319424 -20.65505028
ltibia  4.519953251 0.3186369538 11.13636112
lfoot  0.4621653259 -23.99098778 35.74498367
ltoes  -8.535409597 -18.15502803 -115.7186794
89
root  34.83584246 36.57839918 -14.34642912 10.26545143 -3.883984804 3.149077654
lowerback  -9.025380135 0.3246650398 -0.4697382152
upperback  -3.747859955 1.002089977 -3.907360077
thorax  1.23684001 0.6744689941 -3.678930044
lowerneck  -11.91909981 -7.745329857 -5.187119961
upperneck  11.91660023 -10.54679966 7.58905983
head  6.257420063 -4.709420204 2.269799948
lclavicle  0 -4.497500157e-015 -2.743230041e-014
lhumerus  -48.04940033 31.27249908 62.08679962
lradius  -0.02922704443 -6.507048965e-006 29.15279961
lwrist  3.192251654e-007 -3.790274832e-007 -29.56040001
lhand  -0 -36.98939896 -10.68760014
lfingers  90 7.125020027 -90
lthumb  94.86070534 -25.52003089 101.1658851
rclavicle  0 -4.497500157e-015 -2.743230041e-014
rhumerus  15.91359806 -19.33919907 -46.9375
rradius  -5.16745672e-007 2.214343908e-008 87.11560059
rwrist  0.0006954420824 -0.004670973402 -176.6150055
rhand  -1.769777576e-031 3.95517993 -6.913129807
rfingers  -90 -7.125020027 -90
rthumb  -84.8620664 -9.040447278 -60.22064032
rfemur  -12.2296648 15.41065502 12.77526665
rtibia  -0.2007201016 -0.8594483137 18.78954697
rfoot  0.9341192842 -21.44876289 -36.21801758
rtoes  4.173820282 19.57709745 -102.2865943
lfemur  -6.967151642 -15.89101696 -20.65534592
ltibia  4.536448479 0.3161670268 11.12518406
lfoot  0.4674248993 -23.97473335 35.73209381
ltoes  -8.551943497 -18.14745149 -115.7717533
